# xmcd CD database file
#
# Track frame offsets:
#	150
#	16407
#	25847
#	36145
#	47990
#	59110
#	72382
#	83207
#	93050
#	102060
#	111232
#	123715
#	132870
#	142222
#	152977
#	165595
#	181877
#	191385
#	201210
#	210237
#
# Disc length: 2900 seconds
#
# Revision: 3
# Processed by: cddbd v1.5.1PL0 Copyright (c) Steve Scherf et al.
# Submitted via: CDex 1.51
#
DISCID=1d0b5214
DTITLE=Beach Boys - Good vibrations
DYEAR=1993
DGENRE=
TTITLE0=Good vibrations
TTITLE1=Surfin' Safari
TTITLE2=Fun, Fun, Fun
TTITLE3=California girls
TTITLE4=Surfin' USA
TTITLE5=Sloop John B
TTITLE6=Surfer girl
TTITLE7=I get around
TTITLE8=Dance, Dance, Dance
TTITLE9=When I grow up
TTITLE10=Help me, Rhonda
TTITLE11=409
TTITLE12=Barbara-Ann
TTITLE13=Wouldn't it be nice
TTITLE14=God only knows
TTITLE15=Heroes and villains
TTITLE16=Papa-oom-mow-mow - Live
TTITLE17=Monster mash - Live
TTITLE18=Let's go trippin' - Live
TTITLE19=Little deuce coup - Live
EXTD=YEAR: 1993
EXTT0=
EXTT1=
EXTT2=
EXTT3=
EXTT4=
EXTT5=
EXTT6=
EXTT7=
EXTT8=
EXTT9=
EXTT10=
EXTT11=
EXTT12=
EXTT13=
EXTT14=
EXTT15=
EXTT16=
EXTT17=
EXTT18=
EXTT19=
PLAYORDER=
